<?xml version="1.0" standalone="no"?>
<!DOCTYPE svg PUBLIC "-//W3C//DTD SVG 20010904//EN"
 "http://www.w3.org/TR/2001/REC-SVG-20010904/DTD/svg10.dtd">
<svg version="1.0" xmlns="http://www.w3.org/2000/svg"
 width="3515.000000pt" height="2391.000000pt" viewBox="0 0 3515.000000 2391.000000"
 preserveAspectRatio="xMidYMid meet">

<g transform="translate(0.000000,2391.000000) scale(0.100000,-0.100000)"
fill="#000000" stroke="none">
<path d="M0 11955 l0 -11955 17570 0 17570 0 0 11955 0 11955 -17570 0 -17570
0 0 -11955z m4022 -4364 c177 -42 343 -111 497 -206 105 -65 294 -212 289
-225 -7 -18 -342 -420 -351 -420 -5 0 -29 18 -54 39 -74 65 -218 160 -309 203
-272 127 -570 114 -729 -33 -112 -104 -126 -245 -33 -346 82 -88 183 -123 688
-239 63 -14 158 -39 210 -56 356 -114 591 -359 640 -671 17 -104 8 -280 -20
-377 -29 -103 -90 -222 -151 -298 -113 -140 -355 -289 -546 -338 -371 -94
-846 -2 -1232 239 -76 47 -234 167 -303 229 l-47 43 151 170 c83 94 165 187
184 209 l33 38 68 -60 c170 -150 384 -270 569 -318 131 -34 309 -43 407 -20
212 50 337 175 338 338 1 80 -17 125 -70 176 -84 81 -241 142 -511 196 -263
53 -557 148 -643 207 -258 179 -381 402 -380 689 1 362 222 650 610 796 192
72 478 87 695 35z m1988 -557 c0 -306 4 -554 9 -552 4 2 272 252 596 556 l587
552 401 0 402 0 -45 -44 c-25 -24 -265 -252 -535 -506 -269 -253 -494 -467
-499 -474 -9 -12 71 -125 1201 -1714 l173 -242 -352 2 -352 3 -548 770 c-302
424 -553 770 -559 770 -6 0 -116 -99 -244 -220 l-234 -220 0 -552 -1 -553
-275 0 -275 0 0 1490 0 1490 275 0 275 0 0 -556z m3350 -934 l0 -1490 -280 0
-280 0 0 1490 0 1490 280 0 280 0 0 -1490z m1470 275 l0 -1215 758 -2 757 -3
3 -272 2 -273 -1045 0 -1045 0 0 1490 0 1490 285 0 285 0 0 -1215z m2580 0 l0
-1215 760 0 760 0 0 -275 0 -275 -1040 0 -1040 0 0 1490 0 1490 280 0 280 0 0
-1215z m4682 658 l3 -557 592 557 593 557 400 -2 400 -3 -545 -514 -544 -514
23 -31 c13 -17 252 -353 531 -746 280 -393 580 -815 667 -937 87 -122 158
-225 158 -228 0 -3 -156 -5 -347 -5 l-348 1 -550 774 c-302 426 -553 775 -557
775 -4 0 -113 -100 -242 -222 l-235 -223 -1 -552 0 -553 -280 0 -280 0 0 1490
0 1490 280 0 280 0 2 -557z m3288 62 l0 -495 605 0 605 0 0 495 0 495 280 0
280 0 0 -1490 0 -1490 -280 0 -280 0 0 720 0 720 -605 0 -605 0 0 -720 0 -720
-280 0 -280 0 0 1490 0 1490 280 0 280 0 0 -495z m4435 -981 c314 -812 571
-1483 573 -1490 3 -12 -47 -14 -296 -14 -276 0 -300 1 -307 18 -10 26 -254
669 -277 730 l-19 52 -497 0 -497 0 -149 -389 c-81 -213 -151 -393 -155 -400
-5 -8 -88 -11 -303 -9 l-297 3 572 1487 572 1487 255 1 255 0 570 -1476z
m2325 507 l655 -969 3 969 2 969 280 0 280 0 0 -1490 0 -1490 -268 0 -268 0
-660 974 -659 974 -3 -974 -2 -974 -280 0 -280 0 0 1490 0 1490 273 0 272 0
655 -969z m3856 -521 c316 -817 574 -1486 574 -1488 0 -1 -136 -1 -302 0
l-302 3 -150 397 -151 398 -496 0 -496 0 -154 -400 -154 -400 -298 0 c-281 0
-299 1 -293 18 4 9 261 680 573 1490 l566 1472 255 -2 254 -3 574 -1485z
m-26106 -2861 c21 -6 51 -22 66 -34 l29 -23 -29 -31 -30 -31 -27 26 c-51 49
-166 42 -209 -13 -11 -14 -20 -41 -20 -60 0 -49 40 -85 125 -113 132 -43 171
-73 195 -146 30 -89 -26 -188 -122 -220 -101 -33 -220 -13 -275 47 l-22 25 33
26 34 27 18 -20 c30 -33 69 -49 119 -49 83 0 135 43 135 113 0 53 -31 79 -142
118 -98 35 -140 64 -164 112 -20 38 -20 117 0 156 17 32 66 74 106 90 34 13
135 13 180 0z m5486 -13 c28 -13 55 -29 59 -36 4 -7 -5 -24 -21 -41 -27 -29
-28 -29 -48 -10 -34 30 -62 41 -106 41 -77 0 -130 -45 -130 -111 0 -49 36 -80
127 -109 144 -47 194 -97 195 -193 0 -30 -6 -66 -16 -84 -58 -114 -266 -144
-367 -54 l-42 37 36 27 c29 22 38 24 44 13 17 -29 78 -56 126 -56 80 0 137 43
137 103 0 57 -28 87 -105 113 -100 33 -173 73 -193 107 -58 95 -23 205 81 256
60 30 155 29 223 -3z m5440 -5 c76 -36 129 -88 163 -160 22 -48 26 -69 26
-151 0 -113 -22 -167 -97 -242 -130 -128 -361 -121 -483 14 -58 65 -85 138
-85 232 0 201 135 335 340 336 62 0 85 -5 136 -29z m1859 10 c22 -10 48 -27
57 -37 16 -19 16 -21 -17 -47 -28 -22 -35 -24 -42 -13 -13 23 -65 46 -106 46
-87 0 -146 -56 -133 -126 8 -42 39 -64 139 -99 132 -47 176 -89 185 -173 6
-72 -23 -132 -81 -166 -86 -51 -213 -51 -289 -1 -52 34 -56 49 -22 78 l28 25
39 -32 c35 -28 46 -31 108 -31 64 0 71 2 100 31 23 23 31 41 31 66 0 69 -29
93 -165 138 -76 24 -128 64 -147 110 -18 44 -8 130 20 170 51 72 202 104 295
61z m5435 9 c19 -5 49 -21 65 -34 l30 -24 -29 -31 -30 -31 -27 26 c-51 49
-166 42 -209 -13 -11 -14 -20 -41 -20 -60 0 -49 40 -85 125 -113 132 -43 171
-73 195 -146 20 -61 5 -122 -44 -170 -88 -88 -273 -90 -353 -3 l-22 25 33 26
34 27 18 -20 c61 -67 190 -65 238 3 21 30 20 91 -1 117 -10 12 -65 40 -122 61
-142 54 -181 93 -181 185 0 81 43 143 120 174 33 13 136 13 180 1z m5266 -19
c76 -36 129 -88 163 -160 22 -48 26 -69 26 -151 0 -113 -22 -167 -97 -242 -64
-62 -138 -90 -240 -90 -189 0 -328 140 -328 331 0 124 41 211 132 277 63 47
115 63 208 63 63 1 85 -4 136 -28z m-22674 -123 l3 -142 148 142 149 142 56 0
57 0 -25 -24 c-14 -13 -85 -78 -158 -146 -73 -67 -131 -127 -130 -131 2 -5 74
-83 161 -173 86 -91 157 -167 157 -170 0 -3 -24 -6 -53 -6 l-53 0 -155 166
-154 166 -3 -166 -2 -166 -40 0 -40 0 0 325 0 325 40 0 39 0 3 -142z m1068
-183 l0 -325 -40 0 -40 0 0 325 0 325 40 0 40 0 0 -325z m730 35 l0 -290 151
0 150 0 -3 -32 -3 -33 -187 -3 -188 -2 0 325 0 325 40 0 40 0 0 -290z m950 0
l0 -290 150 0 150 0 0 -35 0 -35 -190 0 -190 0 0 325 0 325 40 0 40 0 0 -290z
m3030 250 l0 -40 -160 0 -160 0 0 -100 0 -100 150 0 150 0 0 -35 0 -35 -150 0
-150 0 0 -115 0 -115 170 0 170 0 0 -35 0 -35 -210 0 -210 0 0 325 0 325 200
0 200 0 0 -40z m1040 0 l0 -40 -165 0 -165 0 0 -100 0 -100 155 0 155 0 0 -35
0 -35 -155 0 -155 0 0 -115 0 -115 175 0 175 0 0 -35 0 -35 -215 0 -215 0 0
325 0 325 205 0 205 0 0 -40z m712 -102 l3 -143 149 143 148 142 54 0 c30 0
54 -1 54 -3 0 -2 -70 -67 -155 -146 -86 -79 -155 -147 -153 -152 2 -4 74 -82
161 -173 86 -90 157 -167 157 -170 0 -3 -24 -6 -53 -6 l-53 0 -154 167 -155
166 -3 -166 -2 -167 -40 0 -40 0 0 325 0 325 40 0 39 0 3 -142z m1068 2 l0
-140 170 0 170 0 0 140 0 140 40 0 40 0 0 -325 0 -325 -40 0 -40 0 0 150 0
150 -170 0 -170 0 0 -150 0 -150 -40 0 -40 0 0 325 0 325 40 0 40 0 0 -140z
m4160 0 c0 -77 3 -140 6 -140 3 0 72 63 152 140 l147 140 55 0 55 0 -50 -48
c-27 -26 -99 -93 -160 -148 l-109 -102 168 -176 168 -176 -58 0 -59 1 -155
166 -155 167 -3 -167 -2 -167 -40 0 -40 0 0 325 0 325 40 0 40 0 0 -140z
m1070 -185 l0 -325 -40 0 -40 0 0 325 0 325 40 0 40 0 0 -325z m730 35 l0
-290 150 0 150 0 0 -35 0 -35 -187 2 -188 3 -3 310 c-1 170 0 315 3 322 2 7
20 13 40 13 l35 0 0 -290z m952 3 l3 -288 148 -3 147 -3 0 -34 0 -35 -185 0
-185 0 0 325 0 325 35 0 35 0 2 -287z m2708 -38 l0 -325 -40 0 -40 0 0 325 0
325 40 0 40 0 0 -325z m730 185 c0 -77 3 -140 6 -140 3 0 72 63 152 140 l147
140 55 0 55 0 -55 -53 c-30 -29 -102 -96 -160 -149 l-104 -96 166 -173 166
-174 -53 -3 -54 -3 -83 88 c-46 48 -118 124 -160 168 l-78 80 0 -167 0 -168
-40 0 -40 0 0 325 0 325 40 0 40 0 0 -140z m1070 0 l0 -140 170 0 170 0 0 140
0 140 40 0 40 0 0 -325 0 -325 -40 0 -40 0 0 150 0 150 -170 0 -170 0 0 -150
0 -150 -40 0 -40 0 0 325 0 325 40 0 40 0 0 -140z m1494 -179 c75 -176 136
-322 136 -325 0 -3 -20 -6 -44 -6 l-44 0 -32 80 -32 80 -162 0 -161 0 -31 -78
-32 -77 -46 -3 -46 -3 28 63 c15 35 79 182 142 326 l115 262 37 0 36 0 136
-319z"/>
<path d="M24982 6660 c-22 -55 -262 -683 -262 -686 0 -2 123 -4 274 -4 l274 0
-129 338 c-161 420 -144 383 -157 352z"/>
<path d="M31032 6332 c-73 -191 -132 -350 -132 -354 0 -5 122 -8 270 -8 149 0
270 2 270 5 0 10 -262 690 -268 697 -4 4 -67 -149 -140 -340z"/>
<path d="M16589 3166 c-59 -21 -107 -64 -136 -124 -39 -80 -39 -184 0 -259 44
-86 124 -133 224 -133 142 1 246 110 247 260 1 89 -23 149 -84 203 -71 64
-165 84 -251 53z"/>
<path d="M29149 3166 c-147 -52 -212 -242 -133 -387 47 -85 122 -129 221 -129
142 1 246 110 247 260 1 89 -23 149 -84 203 -71 64 -165 84 -251 53z"/>
<path d="M27975 2983 c-31 -76 -60 -144 -62 -150 -4 -10 25 -13 125 -13 l130
0 -60 150 c-33 83 -64 150 -68 150 -4 0 -33 -62 -65 -137z"/>
</g>
</svg>
